<svg xmlns="http://www.w3.org/2000/svg" width="69" height="24" viewBox="0 0 69 24"><title>Group Copy 4</title><path d="M19.89 19.28c.43.47.86.94 1.33 1.45-1.85 1.54-3.93 2.46-6.19 2.69-4.91.49-9.11-1.02-12.02-5.2C-1.18 12.2 1.47 3.76 8.27 1.04 12.88-.8 17.11-.17 21.24 2.72c-.3.36-1.32 1.61-1.32 1.61s-.44-.32-.7-.49c-3.8-2.55-8.55-2.48-12.18.21-2.85 2.11-4.25 5.03-3.91 8.54.36 3.68 2.32 6.41 5.75 7.94 3.68 1.65 7.17 1.28 10.5-.95.14-.08.28-.16.51-.3M48 20.76c.08-.14.95-1.26 1.13-1.5.28.16.76.41 1.4.78 5.49 3.21 12.23 1.05 14.86-4.74 1.97-4.36-.31-10.13-4.76-12.19-3.75-1.73-7.33-1.53-10.77.78-.3.18-.62.4-.62.4s-.27-.31-.44-.54c-.25-.33-.53-.64-.79-.96 4.29-3.95 12.2-3.66 16.54.58 4.41 4.3 4.85 11.26.92 15.8-4.24 4.91-11.98 5.95-17.47 1.59M45.94 22.81H43.4v-4.6c0-.88.02-1.76-.01-2.64-.06-1.97-1.23-3.15-3.19-3.11-3.17.06-6.34.15-9.51.31-4.1.21-6.67-2.16-6.69-6.26V1h2.51v1.18c0 1.46-.01 2.93 0 4.39.01 2.62 1.35 3.91 3.93 3.8 3.11-.13 6.21-.27 9.32-.38 2.22-.08 4.11.66 5.29 2.61.48.8.81 1.8.85 2.73.12 2.46.04 4.93.04 7.48M24.12 13c.76.44 1.4.81 2.07 1.2-.79 2.27-.69 6.17-.73 8.93h-2.42c.02-3.42-.41-7.5 1.08-10.13M42 8.97c.25-1.03.44-1.88.47-2.79.06-1.69.02-3.42.02-5.18.88 0 1.61.03 2.57.03 0 2.88.28 6.68-1 9.17-.78-.46-1.61-.96-2.06-1.23" fill="#fff"/></svg>